<?xml version="1.0" encoding="UTF-8"?>
<svg id="Story" xmlns="http://www.w3.org/2000/svg" viewBox="0 0 264 221">
  <defs>
    <style>
      .cls-1 {
        fill: #231e2b;
      }

      .cls-2 {
        fill: #b6b7b8;
      }

      .cls-3 {
        fill: #f7feff;
      }
    </style>
  </defs>
  <rect class="cls-3" x="27.37" y="185.17" width="208.31" height="14.88"/>
  <path class="cls-1" d="M235.75,36.43l-208.31-.1-.07,148.79,208.31.1.07-148.79ZM42.26,170.25l.06-119.03,178.55.09-.06,119.03-178.55-.09Z"/>
  <rect class="cls-2" x="205.93" y="155.45" width="14.88" height="14.88"/>
  <polygon class="cls-3" points="191.06 155.44 191.07 140.56 176.19 140.56 176.19 125.68 161.31 125.67 161.31 140.55 101.79 140.52 101.8 125.64 86.92 125.63 86.91 140.51 72.03 140.5 72.02 155.38 57.15 155.38 57.14 170.26 205.93 170.33 205.94 155.45 191.06 155.44"/>
  <rect class="cls-2" x="42.26" y="155.37" width="14.88" height="14.88"/>
  <rect class="cls-3" x="12.53" y="36.32" width="14.88" height="148.79"/>
  <rect class="cls-2" x="191.06" y="140.57" width="14.88" height="14.88"/>
  <rect class="cls-2" x="57.15" y="140.5" width="14.88" height="14.88"/>
  <polygon class="cls-3" points="57.15 140.5 72.03 140.5 72.04 125.63 86.92 125.63 86.93 110.75 72.05 110.75 72.05 95.87 57.18 95.86 57.18 80.98 42.3 80.97 42.27 155.37 57.15 155.38 57.15 140.5"/>
  <rect class="cls-2" x="176.19" y="125.68" width="14.88" height="14.88"/>
  <rect class="cls-2" x="101.79" y="125.65" width="59.52" height="14.88"/>
  <rect class="cls-2" x="72.04" y="125.63" width="14.88" height="14.88"/>
  <rect class="cls-2" x="161.32" y="110.79" width="14.88" height="14.88"/>
  <rect class="cls-2" x="86.92" y="110.76" width="14.88" height="14.88"/>
  <rect class="cls-2" x="176.2" y="95.92" width="14.88" height="14.88"/>
  <rect class="cls-2" x="72.05" y="95.87" width="14.88" height="14.88"/>
  <polygon class="cls-3" points="205.97 95.93 191.09 95.93 191.08 110.8 176.2 110.8 176.19 125.68 191.07 125.68 191.07 140.56 205.94 140.57 205.94 155.45 220.82 155.46 220.85 81.06 205.97 81.05 205.97 95.93"/>
  <rect class="cls-2" x="191.09" y="81.05" width="14.88" height="14.88"/>
  <rect class="cls-2" x="57.18" y="80.98" width="14.88" height="14.88"/>
  <rect class="cls-2" x="205.98" y="66.18" width="14.88" height="14.88"/>
  <polygon class="cls-3" points="57.18 80.98 72.06 80.99 72.05 95.87 86.93 95.87 86.93 110.75 101.81 110.76 101.8 125.64 161.31 125.67 161.32 110.79 176.2 110.8 176.21 95.92 191.09 95.93 191.09 81.05 205.97 81.05 205.98 66.17 220.86 66.18 220.87 51.3 42.32 51.21 42.31 66.09 57.19 66.1 57.18 80.98"/>
  <rect class="cls-2" x="42.31" y="66.1" width="14.88" height="14.88"/>
  <rect class="cls-3" x="235.72" y="36.43" width="14.88" height="148.79"/>
  <rect class="cls-3" x="27.45" y="21.5" width="208.31" height="14.88"/>
</svg>