<?xml version="1.0" encoding="UTF-8"?>
<svg id="Posts" xmlns="http://www.w3.org/2000/svg" viewBox="0 0 407.53 400.07">
  <defs>
    <style>
      .cls-1 {
        fill: none;
        stroke: #384b70;
        stroke-miterlimit: 10;
        stroke-width: 60px;
      }
    </style>
  </defs>
  <path class="cls-1" d="M334.62,255.28l-41.39,3.43c-19.31,1.6-35.4,15.45-39.84,34.31l-9.53,40.43c-7.84,33.24-53.63,37.04-66.83,5.54l-16.05-38.31c-7.49-17.87-25.63-28.89-44.94-27.29l-41.39,3.43c-34.04,2.82-51.8-39.56-25.92-61.85l31.47-27.1c14.68-12.64,19.55-33.31,12.06-51.18l-16.05-38.31c-13.2-31.5,21.62-61.49,50.82-43.76l35.5,21.56c16.56,10.06,37.72,8.3,52.4-4.34l31.47-27.1c25.88-22.29,65.16,1.56,57.32,34.81l-9.53,40.43c-4.45,18.86,3.76,38.44,20.32,48.49l35.5,21.56c29.19,17.73,18.65,62.45-15.39,65.27Z"/>
</svg>