<?xml version="1.0" encoding="UTF-8"?>
<svg id="Calque_2" data-name="Calque 2" xmlns="http://www.w3.org/2000/svg" viewBox="0 0 164.17 417.55">
  <defs>
    <style>
      .cls-1 {
        fill: #384b70;
      }

      .cls-2 {
        fill: #fff;
      }
    </style>
  </defs>
  <g id="Mains">
    <g>
      <path class="cls-1" d="M69.94,370.84c-5.72,5.45,22.17,41.55-1.14,46.16-30.85,6.09-40.44-39.13-34.99-61.53C17.36,347.08.26,338.48,0,316.97c-.16-13.09,7.94-18.97,10.04-26.95,2.2-8.33.12-16.4,4.82-25.98,5.39-11,11.65-24.03,13.35-37.23,1.45-11.21-2.14-20.8-2.34-30.76-1.13-57.07-1.62-114.01-3.78-171.13,3.32-15.35,10.7-20.1,25.34-23.04,17.69-3.56,37.5-4.26,40.17,18.06,7.59,63.38-8.54,139.72-2.36,204.72,1.48,15.56,14.41,19.84-1.92,36.97,10.89,13.94,21.47,28.36,34.99,39.94,14.21,12.16,61.05,33.5,40.89,58.45-15.57,19.26-43.95,1.15-59.43-8.97-7.01,12.2-14.24,21.27-29.84,19.78ZM76.53,309.27c4.04,24.58,50.78,65.2,74.2,51.05,29.06-17.56-24.64-45.65-35.74-55.41-15.4-13.54-33.33-34.95-38.41-55.03,3.14-1.15,1.83,8.77,6.55,4.38.8-.74,2.58-9.87,2.31-11.98-2.18-16.79-62.43-21.28-57.25,5.38l21.97-5.5c-18.31,6.91-33.96,15.7-34.36,37.76-.15,8.6,5.4,18.67,5.39,26.04,0,6.24-4.87,12.32-3.66,19.27,2.57,14.72,24.31,14.16,31.35,1.44,7.83-14.15,2.04-27.94-3.09-41.6l9.85,10.98,14.31-17.58-14.49,25.18,1.76,18.38,14.95,11.4-16.55-8.48c-6.65,9.25-12.52,17.46-25.24,17.32-6.91,7.55,37.56,37.68,57.01,18.49,16.27-16.05-4.63-26.82-11.3-43.32-.81-2.02-4.14-8.4.46-8.16ZM71.63,409.89c7.06-6.81-9.42-28.93-8.78-38.53l-23.67-9.31c-8.39,15.09,13.05,66.54,32.46,47.84ZM25.95,344.43c.05-7.21-10.54-7.4-12.72-14.74-3.44-11.55,7.75-25.85-2.64-33.64-7.83,18.83-7.26,41.76,15.36,48.37Z"/>
      <path class="cls-2" d="M76.53,309.27c-4.6-.24-1.27,6.15-.46,8.16,6.67,16.5,27.57,27.27,11.3,43.32-19.45,19.18-63.92-10.94-57.01-18.49,12.73.14,18.59-8.07,25.24-17.32l16.55,8.48-14.95-11.4-1.76-18.38,14.49-25.18-14.31,17.58-9.85-10.98c5.13,13.66,10.92,27.45,3.09,41.6-7.04,12.73-28.78,13.29-31.35-1.44-1.21-6.95,3.65-13.03,3.66-19.27,0-7.36-5.55-17.44-5.39-26.04.4-22.07,16.05-30.86,34.36-37.76l-21.97,5.5c-5.17-26.66,55.07-22.16,57.25-5.38.27,2.11-1.51,11.23-2.31,11.98-4.72,4.39-3.41-5.53-6.55-4.38,5.08,20.09,23.02,41.49,38.41,55.03,11.1,9.76,64.8,37.85,35.74,55.41-23.42,14.15-70.16-26.47-74.2-51.05Z"/>
      <path class="cls-2" d="M71.63,409.89c-19.4,18.71-40.84-32.75-32.46-47.84l23.67,9.31c-.63,9.6,15.84,31.72,8.78,38.53Z"/>
      <path class="cls-2" d="M25.95,344.43c-22.62-6.61-23.19-29.54-15.36-48.37,10.39,7.79-.8,22.09,2.64,33.64,2.19,7.33,12.77,7.52,12.72,14.74Z"/>
    </g>
  </g>
</svg>