<?xml version="1.0" encoding="UTF-8"?>
<svg id="Calque_2" data-name="Calque 2" xmlns="http://www.w3.org/2000/svg" xmlns:xlink="http://www.w3.org/1999/xlink" viewBox="0 0 171.32 165.83">
  <defs>
    <style>
      .cls-1 {
        fill: #384b70;
        font-family: Obviously-Semi, Obviously;
        font-size: 20.05px;
      }
    </style>
  </defs>
  <g id="Posts">
    <g id="Post_2_pizza_" data-name="Post 2 (pizza)">
      <g id="v1_" data-name="v1&amp;amp;">
        <g>
          <image width="4572" height="4572" transform="translate(17.52 24.44) scale(.03)" xlink:href="../../../../../../Downloads/Dossier Charte graphique/Links/Logo.png"/>
          <text class="cls-1" transform="translate(15.65 63.49) rotate(-61.42)"><tspan x="0" y="0">B</tspan></text>
          <text class="cls-1" transform="translate(23.13 49.6) rotate(-49.27)"><tspan x="0" y="0">D</tspan></text>
          <text class="cls-1" transform="translate(33.52 37.54) rotate(-37.69)"><tspan x="0" y="0">E</tspan></text>
          <text class="cls-1" transform="translate(45.17 28.89) rotate(-30.14)"><tspan x="0" y="0"> </tspan></text>
          <text class="cls-1" transform="translate(49.17 25.76) rotate(-20.37)"><tspan x="0" y="0">M</tspan></text>
          <text class="cls-1" transform="translate(67.88 18.7) rotate(-4.96)"><tspan x="0" y="0">M</tspan></text>
          <text class="cls-1" transform="translate(88.02 17.5) rotate(5.3)"><tspan x="0" y="0">I</tspan></text>
          <text class="cls-1" transform="translate(95.06 18.18) rotate(10.06)"><tspan x="0" y="0"> </tspan></text>
          <text class="cls-1" transform="translate(100.15 18.74) rotate(17.63)"><tspan x="0" y="0">d</tspan></text>
          <text class="cls-1" transform="translate(113.73 22.98) rotate(28.73)"><tspan x="0" y="0">u</tspan></text>
          <text class="cls-1" transform="translate(126.41 30.26) rotate(36.34)"><tspan x="0" y="0"> </tspan></text>
          <text class="cls-1" transform="translate(130.75 32.98) rotate(44.15)"><tspan x="0" y="0">P</tspan></text>
          <text class="cls-1" transform="translate(141.47 43.32) rotate(55.31)"><tspan x="0" y="0">u</tspan></text>
          <text class="cls-1" transform="translate(149.69 55.23) rotate(65.78)"><tspan x="0" y="0">y</tspan></text>
        </g>
      </g>
    </g>
  </g>
</svg>