<?xml version="1.0" encoding="UTF-8"?>
<svg id="Posts" xmlns="http://www.w3.org/2000/svg" viewBox="0 0 2596.37 1254.79">
  <defs>
    <style>
      .cls-1 {
        fill: #384b70;
      }

      .cls-2 {
        fill: #fff;
      }
    </style>
  </defs>
  <path class="cls-1" d="M2547.59,470.73c-3.99-3.26-9.93-3.69-16.79-2.47-3.48.53-7.2,1.48-11.03,2.7-1.9.63-3.87,1.28-5.88,1.95-1.99.68-4,1.42-6.01,2.19-3.99,1.6-8.11,3.11-12.06,4.74-1.99.79-3.91,1.66-5.85,2.39-1.93.76-3.81,1.5-5.64,2.21-1.82.72-3.58,1.42-5.26,2.09-1.69.64-3.32,1.2-4.84,1.74-3.05,1.07-5.7,1.95-7.82,2.52,11.35-7.81,22.2-16.1,32.6-24.71,3.36-3.07,6.37-7.17,8.56-11.72,2.14-4.65,3.47-9.71,3.67-14.59.22-4.86-.76-9.67-3.06-13.69-2.31-4.05-5.91-7.3-11.11-9.52-2.76-1.17-5.4-1.51-7.95-1.18-1.28.16-2.51.51-3.76.95-1.25.44-2.48,1.02-3.69,1.72-2.44,1.39-4.78,3.38-7.18,5.53-2.39,2.15-4.76,4.64-7.12,7.3-2.39,2.59-4.8,5.28-7.2,8-.6.68-1.2,1.36-1.8,2.03-.61.65-1.22,1.29-1.82,1.93-1.21,1.28-2.42,2.53-3.63,3.73s-2.4,2.36-3.59,3.45c-1.2,1.04-2.4,2.01-3.58,2.89-2.36,1.75-4.66,3.15-6.86,3.96-3.78-5.55-8.98-9.04-14.69-10.89-2.86-.93-5.89-1.6-8.95-1.83-1.53-.12-3.07-.15-4.62-.11-1.56,0-3.12.08-4.67.24-6.19.73-12.31,2.38-17.69,5.02-2.7,1.24-5.21,2.74-7.44,4.46-2.23,1.72-4.21,3.5-5.8,5.57-1.97,2.53-3.32,4.82-4.27,6.97-.96,2.11-1.53,4.1-1.96,6.1-.87,4-1.15,8.01-3.17,13.01-.73,1.8-1.59,3.4-2.57,4.84-.98,1.41-2.07,2.63-3.27,3.73-2.39,2.17-5.16,3.81-8.18,5.02-.38.13-.76.27-1.15.41l-.58.19-.29.09h-.04s.01.01-.03.02l-.2.02-.4.03-1.61.14-3.23.28c-17.22,1.39-34.75,1.51-52.27-.05-17.52-1.52-35.05-4.57-52.24-9.27-17.16-4.81-33.94-11.32-49.98-19.51-1.02-.48-2-1.03-2.99-1.57l-2.96-1.63c-1.96-1.11-3.98-2.12-5.91-3.3l-5.79-3.52c-1.94-1.15-3.85-2.37-5.75-3.62-7.62-5.02-15.13-10.5-22.4-16.27-14.57-11.54-28.23-24.36-40.51-38.26-1.51-1.76-3.09-3.47-4.54-5.26l-4.41-5.36-4.23-5.48c-1.44-1.81-2.71-3.72-4.08-5.58l-2.01-2.81-1.91-2.87-1.91-2.87-.96-1.43-.9-1.46-3.59-5.85-3.35-5.97c-8.75-16-15.41-32.95-19.31-50.44-.28-1.28-.64-2.54-.87-3.83l-.68-3.86c-.45-2.58-.98-5.14-1.23-7.75-.29-2.6-.68-5.19-.91-7.8l-.51-7.84c-.13-1.31-.09-2.62-.1-3.93l-.03-3.94c0-1.31-.04-2.63-.02-3.94l.21-3.95.2-3.95c.06-1.32.11-2.63.27-3.95l.39-3.95.19-1.97.28-1.97c2.74-21.04,8.96-41.91,18.03-61.46,9.08-19.56,21.04-37.85,35.45-53.75,14.4-15.9,31.29-29.38,49.97-39.17,18.66-9.83,39.08-15.81,60.02-17.51,20.94-1.71,42.37.88,62.99,7.06,20.63,6.17,40.46,15.83,58.59,28.1,18.12,12.28,34.62,27.15,48.43,43.93,6.88,8.4,13.11,17.26,18.34,26.51,5.24,9.23,9.56,18.84,12.49,28.54,2.92,9.69,4.48,19.47,4.16,28.71-.14,4.63-.81,9.05-1.91,13.46l-.84,3.3-1.15,3.24-.56,1.63c-.17.55-.46,1.07-.69,1.6l-1.41,3.2c-4.01,8.49-9.93,16.56-16.89,24.1-6.97,7.56-15.18,14.48-23.97,20.89-8.8,6.41-18.23,12.3-28.02,17.77-9.79,5.47-19.95,10.52-30.34,15.24-10.39,4.73-21,9.14-31.76,13.36-5.4,2.09-10.8,4.17-16.28,6.19l-8.24,3.04-4.15,1.52-4.05,1.38c-5.39,1.83-10.78,3.66-16.17,5.49-2.68.98-5.42,1.67-8.14,2.47l-8.17,2.34-8.16,2.34-8.25,1.93-8.24,1.94-4.12.97-4.16.77c-5.55,1.02-11.09,2.03-16.63,3.05-5.59.75-11.18,1.5-16.77,2.26l-4.19.56-4.23.37-8.45.75c-2.82.24-5.63.52-8.45.74l-8.51.42-8.51.42c-1.42.06-2.83.16-4.26.19l-4.28.06c-5.71.08-11.42.17-17.12.25-11.48-.15-22.93-.2-34.48-.68-28.4-.96-57.24-2.74-86.41-4.46-14.6-.83-29.24-1.73-43.98-2.46-7.37-.37-14.74-.8-22.14-1.11-7.4-.32-14.81-.64-22.24-.96-29.53-1.16-59.23-2.33-89.08-3.5-29.87-1.15-59.93-2.29-90.22-3.1-30.3-.81-60.83-1.35-91.75-.8-15.46.27-31.03.87-46.75,2.05-15.72,1.2-31.59,2.94-47.68,5.99-8.06,1.66-16.14,3.4-24.27,5.97-4.06,1.13-8.13,2.7-12.19,4.14-2.03.79-4.06,1.69-6.08,2.54-1.01.44-2.03.84-3.03,1.32l-3.01,1.5-3.01,1.52c-.5.26-1,.5-1.5.77l-1.48.87c-1.97,1.17-3.95,2.32-5.91,3.53l-5.74,4.02c-.97.64-1.87,1.43-2.79,2.18l-2.74,2.28c-1.86,1.46-3.53,3.22-5.25,4.9l-2.54,2.55-2.13,2.41c-1.41,1.62-2.84,3.21-4.24,4.85l-4.01,5.06c-1.37,1.66-2.61,3.43-3.85,5.2-1.23,1.77-2.55,3.49-3.7,5.32l-3.48,5.47c-1.17,1.82-2.17,3.74-3.25,5.61l-1.59,2.83c-.53.94-.98,1.92-1.48,2.88-.96,1.93-1.95,3.86-2.89,5.8-1.73,3.95-3.56,7.87-5.03,11.91-1.62,3.99-2.89,8.08-4.26,12.15-1.16,4.1-2.44,8.19-3.37,12.33-.47,2.07-1.05,4.13-1.43,6.2l-1.24,6.22c-.4,2.07-.69,4.15-1.04,6.22l-.5,3.11-.4,3.11c-1.16,8.3-1.74,16.58-2.17,24.83-.38,8.24-.42,16.43-.28,24.58.36,16.28,1.56,32.36,3.2,48.25,3.31,31.78,8.18,62.87,12.32,93.76,4.14,30.86,7.64,61.55,8.58,92.04.5,15.24.32,30.42-.71,45.46-1.04,15.03-2.83,29.95-5.81,44.57-2.94,14.62-6.91,28.98-11.98,42.91-5.04,13.95-11.33,27.41-18.61,40.34-14.61,25.87-33.34,49.43-55.25,69.78-21.9,20.4-46.87,37.68-73.6,52.05-26.74,14.38-55.21,25.89-84.5,35.1-29.31,9.2-59.45,16.12-89.94,21.24-30.49,5.13-61.36,8.39-92.29,10.24-30.93,1.79-61.97,2.17-92.84,1.03-7.71-.28-15.42-.66-23.09-1.15-3.83-.24-7.66-.52-11.47-.82-3.79-.3-7.63-.65-11.23-1.03l-5.58-.66-5.67-.73c-3.78-.5-7.57-1.06-11.36-1.62-7.58-1.15-15.16-2.41-22.72-3.77-30.24-5.45-60.2-12.45-89.6-20.92-29.39-8.49-58.25-18.43-86.2-30.12-27.94-11.68-55.04-25.01-80.67-40.38-25.62-15.36-49.81-32.72-71.73-52.28-21.91-19.54-41.52-41.31-57.86-65.11-8.17-11.89-15.53-24.28-21.99-37.08-6.44-12.81-12.1-25.98-16.63-39.43-4.51-13.46-8.08-27.16-10.48-41.05-2.38-13.89-3.77-27.94-4.06-42.06-.38-14.12.35-28.3,1.7-42.47,1.44-14.18,3.53-28.35,6.14-42.52,5.17-28.34,12.1-56.63,18.47-85.27,6.37-28.62,12.19-57.65,15.38-87.14,1.64-14.73,2.57-29.56,2.73-44.38.11-7.41-.07-14.83-.35-22.22-.39-7.39-.88-14.78-1.67-22.12-3.05-29.39-9.66-58.17-19.22-85.49-8.53-24.36-19.06-46.74-30.71-67.12-11.66-20.38-24.45-38.74-37.66-55.28-13.23-16.54-26.88-31.26-40.46-44.46-13.59-13.2-27.09-24.91-40.26-35.36-13.19-10.41-25.99-19.61-38.23-27.85-12.28-8.18-23.99-15.37-35.04-21.77-22.14-12.73-41.67-22.2-58.21-29.45-16.56-7.21-30.15-12.2-40.8-15.44-10.65-3.25-18.32-4.81-23.16-4.98-9.67-.35-7.93,4.77,3.47,14.42,5.67,4.87,13.76,10.89,23.87,18.2,10.13,7.29,22.32,15.83,36.12,25.83,13.8,9.99,29.25,21.39,45.75,34.47,16.47,13.12,33.98,27.94,51.78,44.72,2.19,2.12,4.4,4.27,6.64,6.43,2.23,2.16,4.49,4.33,6.67,6.59,2.21,2.24,4.44,4.5,6.68,6.78,2.18,2.32,4.39,4.66,6.61,7.03,1.11,1.18,2.22,2.36,3.34,3.55,1.08,1.22,2.17,2.43,3.26,3.66,2.17,2.45,4.4,4.89,6.58,7.39,4.26,5.08,8.69,10.14,12.85,15.5,4.33,5.24,8.34,10.8,12.55,16.32,3.96,5.68,8.13,11.32,11.93,17.28,3.99,5.84,7.59,11.99,11.37,18.12,1.77,3.12,3.55,6.27,5.35,9.43.44.79.92,1.57,1.34,2.38l1.26,2.42c.84,1.61,1.69,3.23,2.53,4.86.85,1.62,1.7,3.25,2.55,4.88.79,1.66,1.57,3.32,2.37,4.99.79,1.66,1.59,3.33,2.39,5.01l1.2,2.51,1.1,2.56c1.47,3.41,2.96,6.85,4.45,10.3,1.35,3.5,2.71,7.02,4.07,10.55.34.88.7,1.76,1.03,2.65l.92,2.7c.62,1.8,1.23,3.6,1.85,5.41.62,1.81,1.24,3.62,1.86,5.43.56,1.83,1.12,3.67,1.69,5.51l.85,2.76.77,2.78c.52,1.85,1.04,3.71,1.56,5.58.47,1.87.94,3.75,1.42,5.62.48,1.88.95,3.76,1.35,5.66.42,1.89.85,3.79,1.28,5.69.37,1.91.75,3.82,1.13,5.74l.56,2.88.49,2.9c.32,1.93.68,3.86.97,5.81,1.19,7.78,2.08,15.66,2.75,23.64,1.22,15.98,1.36,32.38.28,49.31-1.51,28.53-6.45,57.84-12.96,88.35-6.47,30.53-14.51,62.29-20.94,96.18-1.59,8.49-3.1,17.07-4.41,25.81-1.3,8.75-2.46,17.6-3.36,26.6-.88,9.01-1.56,18.12-1.91,27.34-.32,9.23-.39,18.53-.07,27.9.66,18.74,2.74,37.67,6.5,56.3l.69,3.49.78,3.47c.53,2.31,1.04,4.63,1.59,6.94,1.2,4.59,2.31,9.21,3.69,13.73,2.57,9.12,5.68,18.03,8.94,26.85,6.71,17.54,14.63,34.39,23.72,50.63,9.09,16.22,19.34,31.73,30.53,46.39,22.36,29.37,48.53,55.1,76.54,77.53,14.02,11.21,28.53,21.61,43.39,31.25,14.87,9.62,30.09,18.5,45.54,26.74,30.91,16.49,62.77,30.3,95.11,42.14,32.35,11.79,65.19,21.58,98.38,29.62,16.59,4.03,33.28,7.6,50.09,10.75,16.83,3.14,33.67,5.86,51.06,8.01l6.7.78,3.6.37,3.37.31c4.44.4,8.76.72,13.08,1.03,8.62.59,17.17,1.04,25.71,1.38,17.06.66,34.07.91,51.07.72,34-.35,68.01-2.31,102-6.12,33.98-3.78,67.96-9.49,101.69-17.58,33.72-8.11,67.23-18.65,99.9-32.54,32.64-13.88,64.47-31.24,93.95-52.94,29.45-21.64,56.45-47.79,78.64-77.83,11.1-15,21.03-30.88,29.6-47.58,2.23-4.13,4.14-8.42,6.17-12.64,1.03-2.11,1.93-4.28,2.87-6.43l2.78-6.46,2.57-6.54c.83-2.19,1.74-4.35,2.49-6.57l2.32-6.62,1.14-3.32,1.04-3.34c5.63-17.81,9.87-35.95,12.67-54.07,2.8-18.12,4.36-36.21,4.92-54.07.52-17.85.1-35.47-.93-52.8-1.06-17.32-2.74-34.35-4.71-51.11-3.97-33.48-9.18-65.88-13.28-97.21-2.01-15.63-3.81-31.05-4.86-46.03-.58-7.52-.89-14.88-1.08-22.17-.17-7.28-.05-14.38.23-21.38.36-6.95.98-13.73,1.86-20.33.96-6.55,2.21-12.89,3.75-19,1.61-6.07,3.58-11.87,5.84-17.45,2.28-5.56,5.04-10.79,8.06-15.87l2.36-3.75c.83-1.22,1.71-2.41,2.55-3.63.43-.6.82-1.23,1.29-1.81l1.39-1.75,1.38-1.76c.45-.59.91-1.18,1.42-1.73l2.97-3.4c.56-.69.82-.86,1.14-1.18.32-.3.62-.61.92-.93l.44-.48.55-.44c.37-.29.73-.59,1.09-.9l.53-.47.26-.24.32-.21c.43-.29.86-.58,1.28-.88s.84-.61,1.25-.92l1.48-.86c1.01-.57,1.87-1.22,3.06-1.75,1.14-.54,2.19-1.15,3.38-1.7,1.25-.52,2.5-1.05,3.74-1.6.59-.29,1.3-.52,1.99-.76l2.05-.74,2.05-.76,2.21-.67c1.49-.44,2.93-.92,4.45-1.35l4.71-1.2c.8-.2,1.55-.43,2.38-.6l2.48-.52,4.96-1.06,5.15-.91c1.71-.31,3.42-.62,5.22-.86,3.56-.5,7.06-1.07,10.74-1.45l5.46-.64c1.83-.2,3.71-.35,5.56-.53,14.86-1.39,30.26-2.15,45.85-2.57,15.6-.42,31.42-.5,47.36-.36,15.93.12,31.95.41,48.05.83,32.17.8,64.57,1.99,97.03,3.19l48.75,1.82,24.41.9,24.07.99c32.11,1.39,64.27,3.28,96.88,5.16l24.57,1.35,24.81,1.16,25.11.82c8.48.09,16.94.23,25.46.25l12.88-.21,6.44-.11c1.08-.02,2.14-.02,3.22-.07l3.26-.16,13.02-.65,6.51-.33,6.56-.58,13.11-1.19,3.28-.3c1.09-.1,2.19-.28,3.28-.42l6.57-.88,13.13-1.79c4.37-.71,8.72-1.57,13.08-2.35l6.53-1.21,3.27-.61,1.63-.3,1.62-.37,12.92-3.04,6.46-1.53,3.23-.77,3.18-.91,12.7-3.66c8.54-2.29,16.72-5.3,25.02-8.09,8.53-2.84,15.88-5.62,23.81-8.58,15.72-5.91,31.69-12.24,47.58-19.46,7.95-3.59,15.89-7.38,23.8-11.48,7.91-4.08,15.79-8.4,23.61-13.15,11.82-7.14,23.99-15.29,36.13-25.43,1.51-1.28,3.03-2.56,4.55-3.84,1.5-1.37,3.01-2.74,4.52-4.12l2.26-2.08,2.23-2.21c1.48-1.49,2.97-2.99,4.47-4.49,1.47-1.58,2.92-3.2,4.39-4.82l2.19-2.44,2.13-2.61c1.41-1.75,2.84-3.48,4.23-5.29,1.35-1.88,2.71-3.77,4.07-5.67,1.38-1.85,2.62-3.94,3.91-5.97,1.26-2.06,2.58-4.04,3.72-6.27,1.17-2.18,2.33-4.38,3.48-6.59,1.07-2.29,2.09-4.64,3.11-6.99,1.07-2.31,1.91-4.8,2.77-7.27.84-2.49,1.77-4.93,2.39-7.54.68-2.58,1.35-5.17,1.97-7.78.48-2.65.94-5.33,1.37-8.01.49-2.68.66-5.37.94-8.08.1-1.34.16-2.68.23-4.02.07-1.34.13-2.69.12-4.01,0-1.33,0-2.66,0-3.99-.02-1.32-.09-2.63-.14-3.95-.08-2.65-.35-5.22-.57-7.84-1.08-10.34-3.24-20.3-6.12-29.84-2.93-9.51-6.59-18.62-10.8-27.35-4.23-8.72-9.03-17.06-14.27-25.08-10.48-16.05-22.81-30.71-36.54-44.2-13.73-13.48-28.99-25.67-45.58-36.42-16.59-10.75-34.61-19.97-53.9-27.15-19.27-7.2-39.91-12.21-61.35-14.31-10.71-1.06-21.63-1.32-32.59-.76-10.96.58-21.98,1.91-32.84,4.26-21.77,4.47-42.87,12.65-62.21,23.56-9.64,5.51-18.87,11.68-27.62,18.42-8.73,6.76-16.9,14.15-24.61,21.94-7.73,7.78-14.84,16.11-21.45,24.78-6.6,8.68-12.74,17.7-18.2,27.11-5.49,9.39-10.46,19.08-14.87,29.04-4.35,9.98-8.13,20.23-11.33,30.68-3.22,10.45-5.75,21.15-7.6,32.03-1.85,10.87-3.09,21.93-3.42,33.1-.97,22.3,1.73,44.86,7.12,66.42,2.86,10.73,6.18,21.34,10.42,31.45l1.54,3.82c.54,1.26,1.12,2.49,1.67,3.74,1.13,2.48,2.25,4.98,3.41,7.44,2.47,4.83,4.83,9.74,7.54,14.38l1.98,3.52.99,1.76,1.05,1.71,4.21,6.84c1.43,2.26,2.94,4.45,4.4,6.67l2.23,3.31,2.31,3.22c1.56,2.13,3.06,4.33,4.67,6.4l4.82,6.24c3.3,4.06,6.58,8.14,10.03,12.02,13.65,15.7,28.51,29.79,44.11,42.64,7.82,6.41,15.83,12.5,24.11,18.28,8.25,5.78,17.04,11.26,25.89,16.27,35.56,20.05,74.06,32.57,112.05,38.25,19.01,2.89,37.9,4.19,56.43,4.15,2.32-.01,4.63-.03,6.94-.04,2.31-.02,4.6-.16,6.89-.24,2.29-.09,4.58-.19,6.86-.28,2.28-.11,4.55-.32,6.81-.47,1.62-.12,3.23-.24,4.84-.36h.31s.63-.03.63-.03c1.66-.03,3.26-.09,4.8-.08,1.54,0,3.01.07,4.41.2,2.79.26,5.3.81,7.41,1.64,3.41,1.3,6.42,3.98,9.34,6.78,2.92,2.77,5.78,5.74,8.78,7.35,10.39,5.79,28.8,4.78,41.34,3.12.92-.11,1.85-.22,2.79-.33.93-.14,1.86-.28,2.8-.42,1.88-.29,3.78-.6,5.69-.93,1.91-.33,3.82-.69,5.73-1.07,1.91-.39,3.77-.88,5.64-1.37,3.72-1.01,7.37-2.11,10.8-3.46,3.41-1.4,6.63-2.98,9.54-4.76,2.93-1.75,5.5-3.82,7.65-6.12,2.16-2.3,3.9-4.82,5.11-7.61,1.23-2.77,1.89-5.88,1.95-9.27.06-3.39-.5-7.06-1.75-11.07,2.85-.71,6.51-1.55,10.61-2.72,4.08-1.21,8.67-2.62,13.42-4.29,4.7-1.78,9.61-3.73,14.35-5.97,4.69-2.33,9.3-4.81,13.4-7.55,4.07-2.8,7.7-5.75,10.59-8.81,2.83-3.13,4.91-6.39,5.95-9.66,2.1-6.57-.04-13.24-8.29-19.96ZM2476.15,517.8c-6.23-2.82-11.64-3.13-17.11-3.01-2.74.03-5.49.2-8.3.27-1.41.03-2.83.04-4.29,0-1.46-.07-2.96-.23-4.48-.46-1.65-4.25-2.3-8.53-2.43-12.82-.06-2.14,0-4.28.14-6.42.13-2.17.34-4.33.58-6.5.94-8.67,2.18-17.31.73-25.91,2.15-1.46,4.21-3.06,6.23-4.7,2.01-1.66,3.98-3.32,5.86-5.18,3.77-3.66,7.4-7.34,10.89-11.22,1.76-1.9,3.51-3.78,5.27-5.6,1.74-1.89,3.48-3.73,5.26-5.48,3.6-3.44,7.21-6.83,11.22-9.6.91-.34,1.81-.58,2.67-.74.86-.18,1.69-.27,2.51-.29,1.63-.02,3.17.27,4.6.84,2.87,1.12,5.31,3.3,7.18,6.07,3.75,5.55,5.11,13.54,2.9,20.37-.22.69-.55,1.47-.96,2.3-.42.81-.94,1.69-1.53,2.62-1.19,1.85-2.7,3.91-4.46,6.08-.88,1.08-1.81,2.21-2.81,3.32-1.01,1.09-2.07,2.19-3.17,3.3-2.2,2.2-4.55,4.45-6.99,6.55-4.93,4.07-10.07,7.94-14.77,10.34-2.33,1.24-4.52,2.21-6.44,2.82-1.93.6-3.63.75-4.94.51-2.79-.54-5.19-5.69-8.68-4.87,4.03,8.66,8.1,17.29,12.22,25.91.47-3.22.92-6.42,1.33-9.61.94-.25,2.02-.56,3.22-.93,1.2-.38,2.5-.86,3.92-1.36,2.83-1.01,6.09-2.18,9.61-3.49,3.48-1.38,7.24-2.86,11.13-4.34,3.87-1.52,7.81-3.17,11.78-4.65,2-.73,3.94-1.52,5.88-2.27,1.94-.74,3.86-1.45,5.75-2.11,3.8-1.27,7.36-2.53,10.7-3.42,3.32-.91,6.43-1.44,9.07-1.66,2.64-.21,4.91.02,6.64.81,8.74,3.99,10.8,9.48,8.37,15.67-1.21,3.09-3.5,6.36-6.66,9.48-1.57,1.58-3.33,3.15-5.24,4.71-.96.78-1.94,1.56-2.97,2.31-1.04.73-2.11,1.46-3.21,2.18-4.4,2.85-9.14,5.64-14.07,7.85-2.45,1.14-4.9,2.2-7.32,3.17-2.4.99-4.84,1.75-7.15,2.49-9.23,2.97-17.22,3.87-20.78,2.68-2.25-.77-4.15-4.77-6.89-5.99ZM2377.76,555.87c-2.48-1.25-4.77-2.93-6.82-4.95-2.06-2.06-3.89-4.47-5.47-7.1-3.15-5.26-5.27-11.44-6.29-17.74-1.02-6.3-.94-12.73.28-18.48,1.22-5.79,3.57-10.75,7.19-14.57,1.24,4.57,1.22,20.62,9.1,18.66-4.93-10.31-6.37-19.9-5.61-28.23.38-4.19,1.33-7.98,2.71-11.55,1.38-3.55,3.21-6.75,5.42-9.52,2.21-2.72,4.77-5.23,7.66-7.23,1.44-1,2.97-1.88,4.58-2.64,1.6-.82,3.27-1.53,5.02-2.1,1.75-.58,3.58-1.01,5.47-1.34,1.89-.38,3.85-.63,5.88-.74,2.03-.13,4.15-.04,6.31.05,2.16.1,4.4.34,6.71.74,1.54.26,2.95.63,4.23,1.08,1.28.44,2.44.93,3.49,1.54,2.1,1.2,3.77,2.74,5.07,4.55,2.6,3.62,3.75,8.3,4.04,13.44.3,5.13-.24,10.75-.9,16.1-.66,5.31-1.42,10.41-1.36,14.61.08,6.03,2.65,13.6,2.15,19.4-.25,2.9-1.28,5.41-3.83,6.92-2.54,1.51-6.57,2.24-12.69,1.45-12.46-1.74-16.95-12.91-17.58-25.43-.32-6.27.29-12.88,1.41-18.85,1.12-6,2.77-11.26,4.63-15.18-.81.56-1.57,1.31-2.28,2.16-.71.84-1.38,1.82-2,2.9-1.24,2.16-2.3,4.73-3.21,7.42-.9,2.69-1.64,5.5-2.22,8.12-.59,2.59-1.01,5-1.25,6.95-.56,4.42,1.67,8.89.79,13.35-1.05,5.18-7.46,6.34-7.83,10.62,1.73-.65,3.44-1.4,5.15-2.14l5.11-2.2c0,2.9,3.48,6.54,7.12,9.54,3.61,2.96,7.37,5.36,7.63,6.15.55,1.66-2.33,6.06-1.77,9.66.83,5.22,3.43,9.25,7.26,12.2,3.82,2.95,8.89,4.89,14.38,5.67,2.75.41,5.63.59,8.54.57,2.91-.03,5.8-.4,8.64-.88,2.84-.5,5.61-1.16,8.2-2.02,2.57-.9,4.98-1.95,7.12-3.12l-8.21.81-8.23.58c-2.74.17-5.45.39-8.18.51l-8.19.29c-1.91-.23-4.28-1.2-6.63-2.63-2.37-1.49-4.72-3.44-6.61-5.58-3.78-4.27-5.7-9.27-2.57-12.61,3.04-3.17,9.46-1.47,13.84-3.4,1.43-.65,2.58-1.34,3.52-2.09.93-.77,1.67-1.56,2.3-2.35,1.26-1.58,2.11-3.15,3.31-4.49,1.2-1.34,2.74-2.45,5.39-3.11,2.63-.73,6.36-1.05,12.05-.77,2.37.14,4.64.47,6.8,1.07,2.16.6,4.22,1.45,6.13,2.49,3.81,2.1,7.03,5,9.25,8.37,4.44,6.72,4.84,15.33-2.21,23.06-2.72,3.08-7.96,6-14.47,8.78-3.23,1.43-6.89,2.59-10.67,3.77-1.9.58-3.84,1.14-5.81,1.67-1.97.52-4,.94-6.02,1.38-2.02.43-4.05.83-6.07,1.2-2.01.38-4.02.71-6.03.95-3.99.51-7.87.9-11.48,1.14-3.62.2-7.01.19-9.98.09-2.97-.13-5.52-.32-7.56-.78-11.07-2.39-15.73-7.63-18.02-14.35-2.27-6.68-2.19-14.68-3.38-22.74-.41-2.87,1.2-5.07-3.94-5.54.55,8.81,1.04,17.63,1.49,26.46Z"/>
  <path class="cls-2" d="M2376.27,529.41c.55,8.81,1.04,17.63,1.49,26.46-2.48-1.25-4.77-2.93-6.82-4.95-2.06-2.06-3.89-4.47-5.47-7.1-3.15-5.26-5.27-11.44-6.29-17.74-1.02-6.3-.94-12.73.28-18.48,1.22-5.79,3.57-10.75,7.19-14.57,1.24,4.57,1.22,20.62,9.1,18.66-4.93-10.31-6.37-19.9-5.61-28.23.38-4.19,1.33-7.98,2.71-11.55,1.38-3.55,3.21-6.75,5.42-9.52,2.21-2.72,4.77-5.23,7.66-7.23,1.44-1,2.97-1.88,4.58-2.64,1.6-.82,3.27-1.53,5.02-2.1,1.75-.58,3.58-1.01,5.47-1.34,1.89-.38,3.85-.63,5.88-.74,2.03-.13,4.15-.04,6.31.05,2.16.1,4.4.34,6.71.74,1.54.26,2.95.63,4.23,1.08,1.28.44,2.44.93,3.49,1.54,2.1,1.2,3.77,2.74,5.07,4.55,2.6,3.62,3.75,8.3,4.04,13.44.3,5.13-.24,10.75-.9,16.1-.66,5.31-1.42,10.41-1.36,14.61.08,6.03,2.65,13.6,2.15,19.4-.25,2.9-1.28,5.41-3.83,6.92-2.54,1.51-6.57,2.24-12.69,1.45-12.46-1.74-16.95-12.91-17.58-25.43-.32-6.27.29-12.88,1.41-18.85,1.12-6,2.77-11.26,4.63-15.18-.81.56-1.57,1.31-2.28,2.16-.71.84-1.38,1.82-2,2.9-1.24,2.16-2.3,4.73-3.21,7.42-.9,2.69-1.64,5.5-2.22,8.12-.59,2.59-1.01,5-1.25,6.95-.56,4.42,1.67,8.89.79,13.35-1.05,5.18-7.46,6.34-7.83,10.62,1.73-.65,3.44-1.4,5.15-2.14l5.11-2.2c0,2.9,3.48,6.54,7.12,9.54,3.61,2.96,7.37,5.36,7.63,6.15.55,1.66-2.33,6.06-1.77,9.66.83,5.22,3.43,9.25,7.26,12.2,3.82,2.95,8.89,4.89,14.38,5.67,2.75.41,5.63.59,8.54.57,2.91-.03,5.8-.4,8.64-.88,2.84-.5,5.61-1.16,8.2-2.02,2.57-.9,4.98-1.95,7.12-3.12l-8.21.81-8.23.58c-2.74.17-5.45.39-8.18.51l-8.19.29c-1.91-.23-4.28-1.2-6.63-2.63-2.37-1.49-4.72-3.44-6.61-5.58-3.78-4.27-5.7-9.27-2.57-12.61,3.04-3.17,9.46-1.47,13.84-3.4,1.43-.65,2.58-1.34,3.52-2.09.93-.77,1.67-1.56,2.3-2.35,1.26-1.58,2.11-3.15,3.31-4.49,1.2-1.34,2.74-2.45,5.39-3.11,2.63-.73,6.36-1.05,12.05-.77,2.37.14,4.64.47,6.8,1.07,2.16.6,4.22,1.45,6.13,2.49,3.81,2.1,7.03,5,9.25,8.37,4.44,6.72,4.84,15.33-2.21,23.06-2.72,3.08-7.96,6-14.47,8.78-3.23,1.43-6.89,2.59-10.67,3.77-1.9.58-3.84,1.14-5.81,1.67-1.97.52-4,.94-6.02,1.38-2.02.43-4.05.83-6.07,1.2-2.01.38-4.02.71-6.03.95-3.99.51-7.87.9-11.48,1.14-3.62.2-7.01.19-9.98.09-2.97-.13-5.52-.32-7.56-.78-11.07-2.39-15.73-7.63-18.02-14.35-2.27-6.68-2.19-14.68-3.38-22.74-.41-2.87,1.2-5.07-3.94-5.54Z"/>
  <path class="cls-2" d="M2483.04,523.79c-2.25-.77-4.15-4.77-6.89-5.99-6.23-2.82-11.64-3.13-17.11-3.01-2.74.03-5.49.2-8.3.27-1.41.03-2.83.04-4.29,0-1.46-.07-2.96-.23-4.48-.46-1.65-4.25-2.3-8.53-2.43-12.82-.06-2.14,0-4.28.14-6.42.13-2.17.34-4.33.58-6.5.94-8.67,2.18-17.31.73-25.91,2.15-1.46,4.21-3.06,6.23-4.7,2.01-1.66,3.98-3.32,5.86-5.18,3.77-3.66,7.4-7.34,10.89-11.22,1.76-1.9,3.51-3.78,5.27-5.6,1.74-1.89,3.48-3.73,5.26-5.48,3.6-3.44,7.21-6.83,11.22-9.6.91-.34,1.81-.58,2.67-.74.86-.18,1.69-.27,2.51-.29,1.63-.02,3.17.27,4.6.84,2.87,1.12,5.31,3.3,7.18,6.07,3.75,5.55,5.11,13.54,2.9,20.37-.22.69-.55,1.47-.96,2.3-.42.81-.94,1.69-1.53,2.62-1.19,1.85-2.7,3.91-4.46,6.08-.88,1.08-1.81,2.21-2.81,3.32-1.01,1.09-2.07,2.19-3.17,3.3-2.2,2.2-4.55,4.45-6.99,6.55-4.93,4.07-10.07,7.94-14.77,10.34-2.33,1.24-4.52,2.21-6.44,2.82-1.93.6-3.63.75-4.94.51-2.79-.54-5.19-5.69-8.68-4.87,4.03,8.66,8.1,17.29,12.22,25.91.47-3.22.92-6.42,1.33-9.61.94-.25,2.02-.56,3.22-.93,1.2-.38,2.5-.86,3.92-1.36,2.83-1.01,6.09-2.18,9.61-3.49,3.48-1.38,7.24-2.86,11.13-4.34,3.87-1.52,7.81-3.17,11.78-4.65,2-.73,3.94-1.52,5.88-2.27,1.94-.74,3.86-1.45,5.75-2.11,3.8-1.27,7.36-2.53,10.7-3.42,3.32-.91,6.43-1.44,9.07-1.66,2.64-.21,4.91.02,6.64.81,8.74,3.99,10.8,9.48,8.37,15.67-1.21,3.09-3.5,6.36-6.66,9.48-1.57,1.58-3.33,3.15-5.24,4.71-.96.78-1.94,1.56-2.97,2.31-1.04.73-2.11,1.46-3.21,2.18-4.4,2.85-9.14,5.64-14.07,7.85-2.45,1.14-4.9,2.2-7.32,3.17-2.4.99-4.84,1.75-7.15,2.49-9.23,2.97-17.22,3.87-20.78,2.68Z"/>
</svg>